<?xml version="1.0" encoding="UTF-8"?>
<svg id="Layer_1" data-name="Layer 1" xmlns="http://www.w3.org/2000/svg" viewBox="0 0 512 512">
  <defs>
    <style>
      .cls-1 {
        fill: #f0f7f4;
        stroke-width: 0px;
      }
    </style>
  </defs>
  <path class="cls-1" d="M453.16,83.92c-4.2,47.62-15.33,93.59-33.96,137.58-18.58,43.86-44.08,83.24-79.48,115.55-34.45,31.43-74.45,53.66-118.08,69.73-36.11,13.29-73.39,21.33-111.48,25.96-3.28.4-6.61.54-9.92.61-11.5.23-14.36-2.04-13.57-13.3.97-13.92,2.39-27.88,4.8-41.61,8.26-47.01,22.5-92.01,45.1-134.34,34.44-64.51,85.79-110.45,151.84-140.66,44.56-20.38,91.47-32.21,139.96-38.17,4.74-.58,9.56-.78,14.33-.71,8.09.11,10.61,2.63,10.89,10.56.1,2.93-.27,5.88-.43,8.82ZM274.3,259.33c7.48-.48,12.13-.79,16.78-1.08,10.28-.66,20.55-1.61,30.84-1.85,6.22-.15,9.45,3.05,9.79,8.14.35,5.25-2.42,8.69-8.16,9.89-2.51.53-5.09.85-7.65,1.04-15.41,1.17-30.81,2.44-46.23,3.34-11.31.66-21.69,2.6-28.63,13.04-2.4,3.61-6.1,6.35-9.22,9.48-34.29,34.41-68.6,68.81-102.84,103.27-1.55,1.56-2.55,3.67-4.61,6.71,45.66-7.02,87.79-19.34,127.81-38.65,55.57-26.81,99.55-66.1,130.03-120.17,25.62-45.45,40.64-94.37,49.01-145.56,1.16-7.08,1.6-14.28,2.42-21.84-2.8-.23-4.24-.6-5.6-.41-42.07,5.73-82.95,15.81-122.2,32.36-67.57,28.47-119.96,73.54-153.86,139.16-20.78,40.21-34.06,82.86-41.67,127.37-.62,3.61-.86,7.28-1.39,11.98,2.4-1.42,3.49-1.81,4.23-2.55,20.04-20.04,40.14-40.02,59.92-60.31,2.28-2.34,3.63-6.34,3.96-9.72,1.25-12.8,1.87-25.67,2.81-38.51.64-8.8,1.32-17.6,2.14-26.38.71-7.55,4.99-12.11,10.59-11.6,5.51.5,8.67,4.6,8.54,11.99-.1,5.87-.71,11.74-1.3,17.59-.97,9.61-1.05,19.22-1.68,30.99,4.03-3.63,6.24-5.45,8.26-7.47,21.85-21.88,43.46-44,65.62-65.55,6.35-6.17,8.76-12.8,9.19-21.37.9-17.99,2.77-35.93,4.11-53.9.32-4.32,1.36-7.97,5.8-9.73,7.2-2.87,13.79,2.26,13.26,10.83-.68,11.01-1.93,21.98-2.83,32.97-.22,2.68-.03,5.39-.03,10.38,4.37-4,7.07-6.3,9.58-8.8,15.64-15.59,31.22-31.24,46.84-46.85,1.82-1.82,3.57-3.78,5.66-5.24,4.12-2.89,8.83-2.5,12.07.84,3.22,3.32,3.53,7.44,1.44,11.21-1.56,2.82-4.15,5.12-6.47,7.45-29.09,29.21-58.23,58.37-87.32,87.58-2.47,2.48-4.71,5.19-8.97,9.92Z"/>
</svg>