<?xml version="1.0" encoding="UTF-8"?>
<svg id="Layer_1" data-name="Layer 1" xmlns="http://www.w3.org/2000/svg" viewBox="0 0 512 512">
  <defs>
    <style>
      .cls-1 {
        fill: #00e676;
        stroke-width: 0px;
      }
    </style>
  </defs>
  <path class="cls-1" d="M268.12,495.89c-47.96-5.58-96.68-21.32-136.72-57.76-20.87-18.99-35.64-42.43-46.65-68.28-10.16-23.87-16.47-48.78-19.9-74.45-.48-3.59-.61-7.26-.58-10.89.07-8.05,2.59-10.86,10.91-10.22,10.52.8,21.06,2.05,31.41,4.07,32.08,6.25,62.36,17.31,89.81,35.38,37.44,24.65,61.05,59.71,75.99,101.27,7.97,22.18,12.71,45.08,15.15,68.48,1.04,10.02-2.7,13.17-19.41,12.41ZM82.02,293.04c7.16,48.26,21.94,92.78,56.82,128.12,30.94,31.35,70.11,46.31,112.86,53.6-3.49-5.11-7.5-9.42-11.67-13.56-25.35-25.16-50.75-50.28-76.11-75.44-2.1-2.09-4.31-4.18-5.94-6.62-2.69-4.03-2.18-7.61.98-10.76,3.21-3.2,6.73-3.69,10.71-.82,2.92,2.11,5.46,4.79,8.03,7.35,27.19,27.07,54.35,54.17,81.55,81.23,1.88,1.87,4.03,3.48,7.09,6.1-16.82-98.28-78.75-158.82-184.32-169.2Z"/>
  <path class="cls-1" d="M430.53,219.67c-6.11,1.59-10.88,2.71-15.57,4.07-33.95,9.87-65.61,24.38-93.78,46.04-25.18,19.36-43.44,44.17-57.31,72.47-1.45,2.96-2.78,6.07-4.75,8.67-2.34,3.07-5.54,4.56-9.6,2.71-3.86-1.76-5.65-4.8-4.96-8.73.56-3.18,1.95-6.28,3.34-9.25,22.59-48.35,58.71-83.32,106.18-106.97,24.97-12.44,51.08-21.64,78.5-27,1.3-.25,2.57-.68,3.88-.81,7.15-.75,10.88,1.78,11.05,9.13.29,12.88.47,25.84-.64,38.64-2.62,30.1-9.39,59.24-21.11,87.27-14.66,35.07-37.36,63.7-67.38,86.65-16.05,12.27-32.84,23.43-51.9,30.65-2.46.93-5,2.08-7.55,2.22-3.95.22-7.18-1.72-8.28-5.72-1.02-3.71-.45-7.3,3.15-9.61,1.38-.88,2.96-1.45,4.47-2.11,68.29-29.76,110.54-80.95,125.48-153.97,3.69-18.06,4.99-36.61,7.24-54.96.31-2.52-.22-5.15-.45-9.41Z"/>
  <path class="cls-1" d="M206.26,212.12c-34.92.14-64.05-28.38-64.22-63.31-.17-35.11,26.96-64.67,63.89-64.65,40.1.02,63.9,32.1,64.22,63.29.36,35.49-28.44,64.52-63.89,64.66ZM205.89,194.85c25.61.14,46.77-20.67,47.03-46.25.26-25.35-20.79-46.97-46.1-47.36-25.75-.4-47.51,21.1-47.48,46.93.03,25.68,20.82,46.55,46.54,46.69Z"/>
  <path class="cls-1" d="M370.08,307.68c-1.13,1.72-2.72,4.94-5.02,7.53-18.2,20.45-36.52,40.78-54.83,61.13-6.61,7.35-13.07,14.86-20.03,21.88-2.07,2.09-5.67,3.94-8.45,3.79-6.39-.36-9.25-8.03-5.25-13.67,2.84-4.01,6.4-7.53,9.7-11.21,21.8-24.29,43.61-48.57,65.45-72.83,1.76-1.95,3.52-4.08,5.71-5.42,5.76-3.53,12.65.43,12.71,8.8Z"/>
  <path class="cls-1" d="M274.64,207.61c3.14,1.84,5.98,2.91,8.04,4.82,5.56,5.18,10.95,10.57,16.1,16.17,4.41,4.8,4.43,9.53.66,13.12-3.61,3.43-8.5,3.13-13.15-1.31-5.73-5.48-11.23-11.22-16.75-16.92-2.8-2.89-3.79-6.58-1.69-9.99,1.4-2.28,4.19-3.71,6.8-5.89Z"/>
  <path class="cls-1" d="M303.17,60.04c-1.66,2.97-2.53,5.54-4.21,7.35-5.4,5.8-11.03,11.39-16.72,16.91-3.11,3.02-6.93,3.9-10.95,1.94-4.73-2.31-6.14-8.2-2.31-12.6,5.84-6.71,12.21-13,18.68-19.13,2.71-2.57,6.5-3.94,9.94-1.23,2.13,1.68,3.56,4.24,5.58,6.74Z"/>
  <path class="cls-1" d="M146.37,216.72c-1.65,3.03-2.48,5.67-4.19,7.5-5.42,5.79-11.01,11.44-16.83,16.83-4.17,3.86-9.07,3.93-12.46.83-3.55-3.23-3.98-8.07-.11-12.37,5.75-6.37,11.98-12.32,18.19-18.25,2.85-2.72,6.53-3.79,9.92-1.19,2.15,1.65,3.56,4.27,5.47,6.66Z"/>
  <path class="cls-1" d="M317.74,156.57c-4.63,0-9.27.27-13.87-.07-5.04-.37-8.24-3.68-8.5-8.05-.24-4.05,3.1-8.56,7.78-8.78,9.23-.45,18.5-.42,27.73.03,4.76.23,7.51,4.34,7.25,9-.24,4.23-2.86,7.27-7.52,7.71-4.26.4-8.58.09-12.87.09v.08Z"/>
  <path class="cls-1" d="M118.36,50.97c3,1.84,5.5,2.87,7.34,4.59,5.54,5.2,10.96,10.54,16.17,16.07,4.37,4.65,4.62,9.69,1.15,13.18-3.44,3.45-8.7,3.33-13.19-.92-6-5.67-11.77-11.6-17.42-17.61-2.4-2.56-3.5-6.09-1.32-9.1,1.76-2.43,4.66-4.05,7.28-6.22Z"/>
  <path class="cls-1" d="M95.04,156.58c-4.29,0-8.6.3-12.86-.08-5.23-.47-8.05-3.62-8.1-8.21-.06-4.59,2.67-8.33,7.77-8.6,9.21-.48,18.47-.44,27.68.05,4.37.23,7.9,5.27,7.22,9.2-.74,4.29-3.25,7.3-7.87,7.53-4.6.23-9.23.05-13.85.05,0,.02,0,.04,0,.05Z"/>
  <path class="cls-1" d="M214.7,38c0,3.63.17,7.27-.04,10.89-.34,5.9-4.14,10.08-8.8,9.98-4.45-.1-8.11-3.8-8.3-9.36-.29-8.24-.34-16.51.04-24.74.26-5.74,3.74-8.79,8.7-8.77,4.79.02,7.9,3.21,8.32,9.13.3,4.27.06,8.58.06,12.87h.02Z"/>
  <path class="cls-1" d="M197.5,258.75c0-4.27-.27-8.57.07-12.82.41-5.07,3.58-7.94,8.2-8.11,4.58-.17,8.48,2.63,8.71,7.54.42,9.18.41,18.42-.06,27.6-.24,4.72-4.39,7.39-9.05,7.06-4.27-.3-7.3-2.88-7.7-7.47-.4-4.57-.09-9.2-.09-13.8-.03,0-.06,0-.09,0Z"/>
</svg>