<?xml version="1.0" encoding="UTF-8"?>
<svg id="Layer_1" data-name="Layer 1" xmlns="http://www.w3.org/2000/svg" version="1.1" viewBox="0 0 512 512">
  <defs>
    <style>
      .cls-1 {
        fill: #00e676;
        stroke-width: 0px;
      }
    </style>
  </defs>
  <path class="cls-1" d="M455.5,353.6c-2.9,0-5.9,0-8.8,0-13.3,0-26.7-.4-39.9,2-17.2,3.1-31.3,10.8-40.7,26-.4.6-1.1,1-1.8,1.6-.6-2.8-1-5.2-1.6-7.6-2.4-10.6-6.3-20.5-13.3-29-8.2-9.9-19-16-31-19.9-10.9-3.5-22.1-5.8-33.5-6.5-13-.8-25.9-1.4-38.9-1.9-5.2-.2-7.7,2.1-7.7,6.9,0,19.1.7,38.1,5.2,56.7,3.8,15.5,10.8,29.2,23.6,39.3,8.3,6.5,17.6,11,27.6,14.1,13,4,26.4,5.6,39.9,6.4,6.5.4,13.1.7,19.8,1.1v41.4c-6.2.8,15.9.9,12.8-.3-.8-10.8-.5-37.2.5-41.1,7.4-.4,14.8-.7,22.2-1.2,11.1-.8,22-2.4,32.5-6.2,15.6-5.5,27.8-15,33.6-30.9,2.3-6.3,3.9-13,4.8-19.6,1.1-8,1.4-16.2,1.7-24.3.2-4.7-2.3-6.9-7-7.1h0ZM350.5,408.6c-11.2-17.1-24.9-32-41.7-43.6-7.7-5.3-16.2-9.3-24.3-13.9-.9-.5-1.9-.9-2.9-1.2-3.1-.9-5.9.4-7.3,3.3-1.2,2.7-.5,5.5,2,7.3.7.5,1.5.9,2.3,1.2,30.2,13.3,51.9,35.7,68.1,63.9.6,1,1.2,2.1,1.7,3.2.1.3,0,.7,0,1.3-.7.1-1.6.4-2.4.3-15.4-.9-30.8-1.5-45.6-6.1-5.6-1.8-11.1-4-16.3-6.6-13.9-7-22.5-18.6-27.2-33.2-3.1-9.6-4.7-19.5-5.2-29.5-.4-6.6-.7-13.1-.9-19.7,0-1.3,0-2.7,0-4.6,3,0,5.5,0,8.1,0,15.8.5,31.5,1.1,46.8,5.2,6.2,1.6,12.2,3.8,18,6.4,13.3,5.9,22.1,16.1,25.7,30.1,2.1,8,3.2,16.3,4.3,24.5.7,5.3.8,10.7,1.2,16.5-2.6-.9-3.2-3-4.2-4.6h0ZM447,393.5c-3.8,14.6-12.6,24.6-26.9,29.9-9.2,3.4-18.6,5.1-28.3,5.9-4.6.4-9.2.5-14.8.8,1.5-2,2.3-3.2,3.3-4.3,13.3-14.6,28-27.2,46.3-35.3,4.5-2,5.9-5.8,3.7-9.1-1.6-2.5-4.3-3.6-7.2-2.4-3.4,1.3-6.7,2.9-9.9,4.6-16.4,8.8-30,20.9-42.4,34.6-.7.7-1.3,1.5-2,2.2l-1.1-.5c1.2-15,4.5-29.2,15.5-40.5,6.4-6.6,14.5-9.9,23.4-11.5,6.3-1.1,12.7-1.8,19-2.1,7.9-.3,15.9,0,24.1,0,.2,1.3.4,2.5.4,3.6-.2,8.1-1.1,16.2-3.2,24.1h0Z"/>
  <path class="cls-1" d="M270.9,184.7c-2.9,0-5.9,0-8.8,0-13.3,0-26.7-.4-39.9,2-17.2,3.1-31.3,10.8-40.7,26-.4.6-1.1,1-1.8,1.6-.6-2.8-1-5.2-1.6-7.6-2.4-10.6-6.3-20.5-13.3-29-8.2-9.9-19-16-31-19.9-10.9-3.5-22.1-5.8-33.5-6.5-13-.8-25.9-1.4-38.9-1.9-5.2-.2-7.7,2.1-7.7,6.9,0,19.1.7,38.1,5.2,56.7,3.8,15.5,10.8,29.2,23.6,39.3,8.3,6.5,17.6,11,27.6,14.1,13,4,26.4,5.6,39.9,6.4,6.5.4,13.1.7,19.8,1.1v41.4c-6.2.8,15.9.9,12.8-.3-.8-10.8-.5-37.2.5-41.1,7.4-.4,14.8-.7,22.2-1.2,11.1-.8,22-2.4,32.5-6.2,15.6-5.5,27.8-15,33.6-30.9,2.3-6.3,3.9-13,4.8-19.6,1.1-8,1.4-16.2,1.7-24.3.2-4.7-2.3-6.9-7-7.1h0ZM165.9,239.7c-11.2-17.1-24.9-32-41.7-43.6-7.7-5.3-16.2-9.3-24.3-13.9-.9-.5-1.9-.9-2.9-1.2-3.1-.9-5.9.4-7.3,3.3-1.2,2.7-.5,5.5,2,7.3.7.5,1.5.9,2.3,1.2,30.2,13.3,51.9,35.7,68.1,63.9.6,1,1.2,2.1,1.7,3.2.1.3,0,.7,0,1.3-.7.1-1.6.4-2.4.3-15.4-.9-30.8-1.5-45.6-6.1-5.6-1.8-11.1-4-16.3-6.6-13.9-7-22.5-18.6-27.2-33.2-3.1-9.6-4.7-19.5-5.2-29.5-.4-6.6-.7-13.1-.9-19.7,0-1.3,0-2.7,0-4.6,3,0,5.5,0,8.1,0,15.8.5,31.5,1.1,46.8,5.2,6.2,1.6,12.2,3.8,18,6.4,13.3,5.9,22.1,16.1,25.7,30.1,2.1,8,3.2,16.3,4.3,24.5.7,5.3.8,10.7,1.2,16.5-2.6-.9-3.2-3-4.2-4.6h0ZM262.5,224.6c-3.8,14.6-12.6,24.6-26.9,29.9-9.2,3.4-18.6,5.1-28.3,5.9-4.6.4-9.2.5-14.8.8,1.5-2,2.3-3.2,3.3-4.3,13.3-14.6,28-27.2,46.3-35.3,4.5-2,5.9-5.8,3.7-9.1-1.6-2.5-4.3-3.6-7.2-2.4-3.4,1.3-6.7,2.9-9.9,4.6-16.4,8.8-30,20.9-42.4,34.6-.7.7-1.3,1.5-2,2.2l-1.1-.5c1.2-15,4.5-29.2,15.5-40.5,6.4-6.6,14.5-9.9,23.4-11.5,6.3-1.1,12.7-1.8,19-2.1,7.9-.3,15.9,0,24.1,0,.2,1.3.4,2.5.4,3.6-.2,8.1-1.1,16.2-3.2,24.1h0Z"/>
  <path class="cls-1" d="M454.5,66.6c-2.9,0-5.9,0-8.8,0-13.3,0-26.7-.4-39.9,2-17.2,3.1-31.3,10.8-40.7,26-.4.6-1.1,1-1.8,1.6-.6-2.8-1-5.2-1.6-7.6-2.4-10.6-6.3-20.5-13.3-29-8.2-9.9-19-16-31-19.9-10.9-3.5-22.1-5.8-33.5-6.5-13-.8-25.9-1.4-38.9-1.9-5.2-.2-7.7,2.1-7.7,6.9,0,19.1.7,38.1,5.2,56.7,3.8,15.5,10.8,29.2,23.6,39.3,8.3,6.5,17.6,11,27.6,14.1,13,4,26.4,5.6,39.9,6.4,6.5.4,13.1.7,19.8,1.1v41.4c-6.2.8,15.9.9,12.8-.3-.8-10.8-.5-37.2.5-41.1,7.4-.4,14.8-.7,22.2-1.2,11.1-.8,22-2.4,32.5-6.2,15.6-5.5,27.8-15,33.6-30.9,2.3-6.3,3.9-13,4.8-19.6,1.1-8,1.4-16.2,1.7-24.3.2-4.7-2.3-6.9-7-7.1h0ZM349.5,121.6c-11.2-17.1-24.9-32-41.7-43.6-7.7-5.3-16.2-9.3-24.3-13.9-.9-.5-1.9-.9-2.9-1.2-3.1-.9-5.9.4-7.3,3.3-1.2,2.7-.5,5.5,2,7.3.7.5,1.5.9,2.3,1.2,30.2,13.3,51.9,35.7,68.1,63.9.6,1,1.2,2.1,1.7,3.2.1.3,0,.7,0,1.3-.7.1-1.6.4-2.4.3-15.4-.9-30.8-1.5-45.6-6.1-5.6-1.8-11.1-4-16.3-6.6-13.9-7-22.5-18.6-27.2-33.2-3.1-9.6-4.7-19.5-5.2-29.5-.4-6.6-.7-13.1-.9-19.7,0-1.3,0-2.7,0-4.6,3,0,5.5,0,8.1,0,15.8.5,31.5,1.1,46.8,5.2,6.2,1.6,12.2,3.8,18,6.4,13.3,5.9,22.1,16.1,25.7,30.1,2.1,8,3.2,16.3,4.3,24.5.7,5.3.8,10.7,1.2,16.5-2.6-.9-3.2-3-4.2-4.6h0ZM446,106.5c-3.8,14.6-12.6,24.6-26.9,29.9-9.2,3.4-18.6,5.1-28.3,5.9-4.6.4-9.2.5-14.8.8,1.5-2,2.3-3.2,3.3-4.3,13.3-14.6,28-27.2,46.3-35.3,4.5-2,5.9-5.8,3.7-9.1-1.6-2.5-4.3-3.6-7.2-2.4-3.4,1.3-6.7,2.9-9.9,4.6-16.4,8.8-30,20.9-42.4,34.6-.7.7-1.3,1.5-2,2.2l-1.1-.5c1.2-15,4.5-29.2,15.5-40.5,6.4-6.6,14.5-9.9,23.4-11.5,6.3-1.1,12.7-1.8,19-2.1,7.9-.3,15.9,0,24.1,0,.2,1.3.4,2.5.4,3.6-.2,8.1-1.1,16.2-3.2,24.1h0Z"/>
</svg>