<?xml version="1.0" encoding="UTF-8"?>
<svg id="Layer_1" data-name="Layer 1" xmlns="http://www.w3.org/2000/svg" viewBox="0 0 512 512">
  <defs>
    <style>
      .cls-1 {
        fill: #00e676;
        stroke-width: 0px;
      }
    </style>
  </defs>
  <path class="cls-1" d="M397.32,208.85c-3.87-.13-7.75-.07-11.63-.08-17.55-.06-35.1-.47-52.5,2.63-22.59,4.02-41.17,14.19-53.52,34.2-.48.78-1.4,1.29-2.38,2.17-.76-3.72-1.34-6.84-2.05-9.94-3.17-13.92-8.25-26.97-17.48-38.12-10.83-13.07-24.96-21.08-40.84-26.22-14.35-4.64-29.1-7.58-44.14-8.56-17.05-1.11-34.12-1.9-51.19-2.54-6.83-.25-10.09,2.77-10.12,9.11-.1,25.1.89,50.14,6.9,74.66,5,20.4,14.23,38.39,31.1,51.73,10.88,8.59,23.12,14.52,36.29,18.57,17.08,5.26,34.69,7.39,52.46,8.43,8.59.5,17.18.94,26.09,1.43,0,18.37,0,36.25,0,54.52-8.16,1.02,20.87,1.17,16.81-.36-1.08-14.18-.65-49.01.68-54.13,9.72-.51,19.49-.9,29.24-1.58,14.58-1.02,28.95-3.22,42.79-8.14,20.5-7.29,36.56-19.68,44.2-40.7,3.01-8.27,5.08-17.05,6.3-25.77,1.47-10.57,1.81-21.32,2.19-32.01.22-6.17-3.02-9.08-9.21-9.29ZM259.13,281.21c-14.76-22.56-32.74-42.14-54.94-57.44-10.07-6.94-21.26-12.25-31.97-18.26-1.18-.66-2.47-1.21-3.77-1.6-4.1-1.23-7.83.48-9.61,4.3-1.64,3.52-.67,7.24,2.61,9.66.91.67,1.97,1.15,3.01,1.6,39.79,17.45,68.28,46.94,89.63,84.05.79,1.37,1.52,2.79,2.18,4.22.16.35-.05.87-.12,1.66-.98.14-2.06.48-3.11.42-20.23-1.16-40.55-1.92-60.07-8.05-7.35-2.31-14.59-5.23-21.47-8.68-18.34-9.2-29.6-24.45-35.74-43.74-4.02-12.65-6.14-25.66-6.89-38.89-.49-8.64-.86-17.29-1.25-25.94-.08-1.76-.01-3.53-.01-6.01,3.91,0,7.26-.09,10.61.01,20.73.64,41.47,1.51,61.64,6.8,8.1,2.12,16.07,5.02,23.74,8.39,17.56,7.71,29.03,21.17,33.82,39.65,2.73,10.52,4.17,21.41,5.68,32.2.97,6.95,1.02,14.03,1.53,21.68-3.45-1.18-4.19-4-5.52-6.04ZM386.18,261.41c-5.03,19.18-16.63,32.43-35.45,39.34-12.08,4.44-24.54,6.69-37.26,7.8-6.04.53-12.11.7-19.43,1.11,1.98-2.57,3.07-4.22,4.39-5.66,17.5-19.16,36.88-35.82,60.91-46.44,5.96-2.63,7.74-7.58,4.87-11.96-2.11-3.23-5.64-4.69-9.5-3.2-4.44,1.71-8.77,3.79-12.97,6.05-21.54,11.57-39.52,27.52-55.84,45.51-.88.98-1.76,1.96-2.63,2.94l-1.46-.67c1.58-19.72,5.98-38.44,20.44-53.32,8.4-8.64,19.15-13.07,30.76-15.12,8.26-1.46,16.68-2.36,25.06-2.73,10.43-.46,20.9-.11,31.76-.11.22,1.76.59,3.26.55,4.75-.26,10.72-1.48,21.34-4.2,31.72Z"/>
  <g>
    <path class="cls-1" d="M104.82,418.78c-26.96-24.89-47.49-57.14-59.35-93.27-11.62-35.38-14.68-73.56-8.84-110.43.34-2.58,1.26-4.41,1.94-5.55,5.64-35.5,24.52-66.34,40.39-89.29l.16-.22c20.09-27.46,46.96-49.36,79.85-65.1,29.51-14.37,62.17-22.23,94.39-22.68,32.44-.45,64.75,6.58,93.46,20.37l-8.66,18.03c-53.05-25.47-115.19-24.64-170.49,2.29-29.9,14.31-54.22,34.08-72.33,58.79-14.76,21.35-32.27,49.9-37.12,81.65-.33,2.61-1.26,4.45-1.95,5.59-10.67,69,13.09,139.86,62.12,185.12l-13.56,14.7Z"/>
    <path class="cls-1" d="M255.01,478.6c-29.18,0-58.31-5.78-85.38-17.83l8.14-18.27c78.61,35.01,176.66,11.66,233.17-55.53,19.11-23.25,32.82-49.86,41.91-81.34,4.93-19.16,6.51-38.98,5.28-66.23-3.37-51.03-26.35-98.06-64.72-132.43l13.35-14.9c42.31,37.9,67.64,89.8,71.33,146.12v.2c.96,20.79,1,45.64-5.91,72.37l-.07.27c-9.86,34.24-24.83,63.25-45.75,88.69l-.07.08c-42.7,50.8-107.08,78.8-171.27,78.8Z"/>
    <path class="cls-1" d="M187.79,494.84c-2.88,0-5.71-1.38-7.45-3.94l-30.83-45.3,50.92-20.83c4.6-1.88,9.86.32,11.74,4.92s-.32,9.86-4.92,11.74l-30.35,12.41,18.33,26.93c2.8,4.11,1.73,9.71-2.38,12.5-1.55,1.05-3.31,1.56-5.06,1.56Z"/>
    <path class="cls-1" d="M309.18,88.56c-3.55,0-6.91-2.11-8.33-5.59-1.88-4.6.32-9.86,4.92-11.74l30.35-12.41-18.33-26.93c-2.8-4.11-1.73-9.71,2.38-12.5s9.71-1.73,12.5,2.38l30.83,45.3-50.92,20.83c-1.12.46-2.27.67-3.4.67Z"/>
  </g>
</svg>