<?xml version="1.0" encoding="UTF-8"?>
<svg id="Layer_1" data-name="Layer 1" xmlns="http://www.w3.org/2000/svg" viewBox="0 0 512 512">
  <defs>
    <style>
      .cls-1 {
        fill: #f0f7f4;
        stroke-width: 0px;
      }
    </style>
  </defs>
  <path class="cls-1" d="M134.87,326.24c10.78-4.14,20.74-9.08,31.28-11.78,17.35-4.43,34.34-.9,50.49,6.13,6.82,2.97,13.61,4.19,21.01,4.15,29.71-.19,59.43-.04,89.14,0,14.39.02,15.75,1.4,16.03,15.95.01.54.68,1.07,1.62,2.45,6.04-5.08,12.01-10.14,18.02-15.14,10.47-8.7,21.73-15.87,35.38-18.59,21.53-4.28,38.62,3.65,52.61,19.4,5.51,6.2,4.81,10.17-1.99,16.89-20.63,20.4-41.32,40.75-62.06,61.03-12.59,12.31-25.58,24.24-37.95,36.77-16.5,16.7-36.4,24.2-59.65,24.14-47.68-.13-95.36-.04-143.05-.04-4.03,0-8.06,0-12.53,0-.41,4.05-.6,6.73-.96,9.39-.84,6.22-3.01,8.71-9.32,8.8-18.65.25-37.32.27-55.97.02-6.17-.08-8.42-2.83-8.99-9.08-.19-2.06-.07-4.14-.07-6.22,0-47.68-.01-95.36,0-143.05,0-12.59,2.17-14.72,15.27-14.79,14.86-.08,29.72-.06,44.57,0,13.14.06,14.48,1.19,17.12,13.55ZM431.91,335.96c-9.77-8.47-20.27-12.5-31.96-8.37-8.3,2.93-16.59,7.18-23.46,12.64-17.58,13.96-34.46,28.81-51.41,43.55-8.19,7.12-17.32,11.02-28.23,10.96-19.7-.11-39.4-.02-59.11-.03-1.73,0-3.48.06-5.17-.23-5.04-.84-7.78-3.65-8.06-8.03-.29-4.42,2.96-8.6,7.83-9.52,2.34-.44,4.82-.22,7.24-.23,18.67-.03,37.33-.16,55.99.02,8.29.08,14.73-3,19.63-9.55,5.09-6.81,7.45-14.55,8.32-24.42-4.21,0-7.9,0-11.58,0-24.2,0-48.39-.16-72.59.08-10.46.11-20.67.07-29.95-5.83-2.27-1.45-5.12-2.07-7.76-2.85-23.84-7.1-44.99-3.06-62.92,14.97-3.4,3.41-4.98,7.04-5.03,11.89-.26,26.26-.8,52.51-1.17,78.77-.04,3.01.38,6.03.63,9.78,3.65.37,6.65.93,9.65.93,47.35.06,94.71.17,142.06-.02,20.88-.08,38.78-7.04,53.9-22.31,28.46-28.72,57.74-56.61,86.65-84.88,2.16-2.11,4.03-4.52,6.5-7.32ZM113.07,467.34c2.98-18.42,3.61-128.04.92-136.17-12.28,0-24.57,0-36.72,0-2.25,10.97-1.81,128.01.53,136.17,11.46,0,23.08,0,35.27,0Z"/>
  <path class="cls-1" d="M277.43,221.03c9.52-8.33,16.72-14.15,18.01-26.15,2.06-19.02,9.28-36.72,20.53-52.5,10.08-14.14,23.39-24.28,39.11-31.43,18.13-8.25,37.34-12.2,57.02-14.06,9.8-.92,14.49,3.37,12.45,12.59-7.87,35.64-22.25,67.59-53.91,88.83-17.31,11.62-36.94,16.89-57.33,19.43-5.18.64-9.02,2.34-12.5,6.13-5.59,6.11-11.29,12.19-17.52,17.62-4.67,4.06-6.05,8.62-5.94,14.52.27,14.85.09,29.71.08,44.57,0,2.42.17,4.87-.15,7.25-.71,5.32-4,8.29-8.85,8.33-4.78.04-8.44-2.94-8.96-8.18-.47-4.79-.16-9.66-.17-14.5-.01-5.15,0-10.3,0-15.83-7.63-4.11-14.67-8.49-22.2-11.71-3.5-1.5-8.03-1.34-11.98-.92-22.58,2.38-44.96,1.73-66.46-6.07-33.86-12.28-53.51-37.72-63.71-71.29-2.27-7.46-.14-11.87,7.23-13.03,39.4-6.19,77.33-4.5,109.43,23.45,12.76,11.11,21.3,25.3,27.84,40.72,4.98,11.76,5.79,12.61,19.38,16.56.16-3.2.43-6.23.44-9.26.04-20.04-.25-40.09.17-60.12.14-6.66-1.72-10.62-7.71-14.07-17.81-10.28-33.45-23.37-45.44-40.24-21.7-30.55-22.4-63.6-10.43-97.77,2.8-7.99,7.3-9.78,14.49-6.09,24.32,12.5,45.46,28.84,60.33,52.28,16.25,25.61,17.77,53.29,10.13,81.72-2.37,8.84-3.57,17.46-3.41,26.48.18,10.19.04,20.38.04,32.71ZM262.59,156.42c.75-1.5,1.84-2.92,2.18-4.5,2.96-13.63,3.66-27.35-.15-40.91-8.09-28.76-28.28-47.15-53.29-61.27-.25-.14-.68.02-1.02.04-14.05,44.36,8.74,83.83,52.28,106.63ZM115.4,191.74c14.49,35.63,40.65,53.29,77.4,55.93,9.48.68,19.07.9,28.61-.58,0-2.02.32-3.17-.05-4.01-8.74-19.97-21.83-36-42.25-44.85-18.81-8.15-38.66-9.73-58.88-8.12-1.28.1-2.5.82-4.84,1.63ZM313.66,198.76c45.75-3.17,85.69-39.97,89.12-81.4-53.71,3.46-84.22,36.14-89.12,81.4Z"/>
</svg>