<?xml version="1.0" encoding="UTF-8"?>
<svg id="Layer_1" data-name="Layer 1" xmlns="http://www.w3.org/2000/svg" viewBox="0 0 512 512">
  <defs>
    <style>
      .cls-1 {
        fill: #00e676;
        stroke-width: 0px;
      }
    </style>
  </defs>
  <path class="cls-1" d="M64.55,278.81c-.07-.99-.19-1.98-.21-2.97-.28-9.4,2.19-12.64,11.35-11.67,14.39,1.52,28.89,3.24,42.95,6.54,36.14,8.48,69.36,23.26,97.64,48.03,22.85,20.02,38.94,44.66,50.65,72.41,10.46,24.8,17.09,50.6,19.79,77.4.26,2.62.43,5.28.32,7.92-.28,6.91-2.94,9.99-9.78,9.49-9.85-.73-19.72-1.96-29.44-3.75-36.15-6.63-69.89-19.23-99.91-40.95-29.52-21.35-49.64-49.87-63.67-83.04-10.75-25.41-17.06-51.96-19.67-79.4ZM82.55,281.32c0,3.47-.18,4.79.03,6.06,3.14,19.25,7.62,38.18,14.6,56.43,11.76,30.73,28.6,57.97,54.67,78.77,28.01,22.35,60.52,34.56,95.13,41.96,1.43.31,3.01-.11,5.45-.24-1.38-1.86-2.03-2.99-2.91-3.87-27.62-27.5-55.26-54.96-82.88-82.46-3.04-3.02-6.13-6.03-8.84-9.33-2.67-3.25-2.12-6.83.31-10.03,2.44-3.2,7.04-4.18,10.72-1.93,2.49,1.52,4.58,3.75,6.68,5.84,27.38,27.27,54.72,54.58,82.1,81.84,2.23,2.22,4.72,4.16,8.38,7.35-.65-11.76-3.76-21.08-6.59-30.39-11.17-36.78-29.16-69.36-59.55-93.9-24.86-20.08-53.6-32.26-84.45-39.64-10.46-2.5-21.11-4.17-32.84-6.45Z"/>
  <path class="cls-1" d="M429.8,210.73c-2.22,0-3.88-.34-5.35.05-41.69,11-80.27,28.21-113.18,56.76-20.32,17.64-34.99,39.42-46.96,63.22-1.48,2.95-2.75,6.04-4.52,8.81-2.49,3.89-7.3,5.16-11.28,3.38-3.85-1.72-6.02-6.34-3.74-10.77,6.64-12.9,13.1-25.99,20.97-38.13,23.73-36.63,57.5-61.37,96.51-79.7,21.33-10.02,43.66-16.97,66.5-22.5.64-.16,1.28-.31,1.93-.43,13.57-2.45,16.83,0,16.98,13.64.6,52.13-9.32,101.71-35.78,147.31-18.37,31.67-44.64,55.37-75.23,74.61-8.91,5.61-18.55,10.09-27.96,14.86-2.61,1.32-5.56,2.21-8.45,2.7-5.36.89-8.71-1.17-10.13-5.68-1.2-3.79.42-7.39,4.51-9.86,1.12-.68,2.36-1.18,3.57-1.7,60.79-26.4,102.08-70.26,120.59-134.57,6.97-24.23,11.15-48.88,11.5-74.12.04-2.53-.3-5.07-.48-7.9Z"/>
  <path class="cls-1" d="M209.1,258.12c-43.06,1.07-79.01-45.7-55.95-91.35,14.58-28.85,31.12-56.71,46.98-84.91,5.62-10,12.59-9.92,18.17.07,15.62,27.95,31.44,55.79,46.5,84.04,22.42,42.06-8.06,92.16-55.7,92.15ZM209.33,102.77c-1.35,1.46-2.39,2.24-2.97,3.28-12.81,23.1-25.58,46.22-38.33,69.34-4.31,7.81-5.49,16.3-4.38,24.98,2.34,18.33,12.29,31.41,29.5,37.71,17.08,6.25,33.36,3.54,46.92-9.23,16.4-15.45,19.65-36.31,8.92-56.02-12-22.03-24.32-43.89-36.54-65.81-.75-1.34-1.82-2.51-3.11-4.25Z"/>
  <path class="cls-1" d="M307.29,144.99c-31.17-.1-51.36-32.46-37.19-60.4,8.95-17.63,18.92-34.76,28.73-51.94,5.08-8.89,12.03-8.9,17.22.15,10.01,17.45,20.25,34.82,29.06,52.88,13.52,27.73-7.08,59.41-37.83,59.31ZM307.39,52.61c-8.27,15.07-16.04,28.02-22.6,41.55-4.98,10.27-.95,22.46,8.04,29.01,8.7,6.35,21.1,6.18,29.42-.4,9.12-7.22,12.7-18.77,7.59-29.11-6.53-13.23-14.12-25.94-22.46-41.05Z"/>
  <path class="cls-1" d="M359.86,287.1c7.69-.5,12.29,6.65,9.18,12.4-1.38,2.56-3.6,4.7-5.57,6.9-23.73,26.52-47.49,53.01-71.24,79.51-.22.25-.44.49-.67.73-5.25,5.45-10.65,6.44-14.56,2.66-3.59-3.47-3.18-8.61,1.57-13.99,10.69-12.1,21.51-24.08,32.31-36.09,14.09-15.68,28.16-31.39,42.37-46.96,2.12-2.32,5.02-3.94,6.62-5.17Z"/>
</svg>