<?xml version="1.0" encoding="UTF-8"?>
<svg id="Layer_1" data-name="Layer 1" xmlns="http://www.w3.org/2000/svg" viewBox="0 0 512 512">
  <defs>
    <style>
      .cls-1 {
        fill: #00e676;
        stroke-width: 0px;
      }
    </style>
  </defs>
  <path class="cls-1" d="M290.33,227.33c20.25,7.05,39.03,14.36,58.28,20.11,25.31,7.57,36.7,26.52,36.69,51,0,9.09-.93,18.3-2.65,27.23-2.64,13.67-6.67,15.69-20,11.58-22.39-6.89-44.76-13.82-67.11-20.81-19.21-6.01-38.32-12.37-57.62-18.07-6.2-1.83-12.88-2.83-19.33-2.81-14.41.05-28.52-1.53-42.29-5.65-14.61-4.37-27.5-11.9-38.87-22.07-2.11-1.89-4.36-3.62-7.62-6.32-.6,3.45-1.16,5.75-1.38,8.07-.89,9.62-3.19,11.88-13.07,12.17-5.13.15-10.26.03-15.39.03-16.49,0-32.98.1-49.47-.03-11.43-.09-14.44-3.03-14.45-14.3-.05-58.27-.04-116.54.05-174.81.01-10.21,2.96-13.7,12.69-13.8,21.98-.23,43.97.06,65.95.16,1.46,0,2.92.23,4.38.33,5.52.4,8.83,3.04,9.21,8.85.11,1.74.58,3.46,1.05,6.14,20.9-.7,41.32-1.36,61.75-2.07,2.19-.08,4.38-.47,6.57-.54,48.33-1.68,96.66-3.12,144.98-5.08,32.06-1.3,54.63,13.64,70.36,40.18,12.89,21.73,24.78,44.06,37.57,65.84,4.74,8.06,7.61,16.46,9.21,25.56,4.76,27.02,9.65,54.01,14.61,80.99,3.57,19.4,2.32,21.39-16.67,25.04-2.51.48-5.03,1.05-7.57,1.31-22.07,2.31-38.89-8.31-45.49-29.5-4.68-15.01-8.63-30.26-12.61-45.48-1.88-7.18-4.66-13.7-9.25-19.65-11.63-15.09-22.87-30.48-34.34-45.69-5.65-7.49-5.77-7.53-14.44-4.65-11.12,3.69-22.15,7.68-33.3,11.26-3.88,1.25-6.49,3.12-6.99,7.37-1.07,9.03-2.2,18.05-3.42,28.07ZM455.23,303.99c0-.93.16-2.01-.02-3.04-4.92-27.73-9.73-55.47-14.97-83.14-.93-4.91-3.17-9.74-5.63-14.15-12.47-22.4-24.93-44.81-37.94-66.9-12-20.37-29.06-32.18-53.96-30.99-38.78,1.85-77.59,3.09-116.39,4.47-28.92,1.03-57.85,1.83-86.77,2.83-3.48.12-6.95.79-10.05,1.16-.54,2.36-1,3.42-1,4.49-.07,33.34-.21,66.69.03,100.03.03,3.81,1.54,7.94,3.41,11.35,6.59,12.04,15.38,22.26,26.73,30.15,18.22,12.68,38.82,16.71,60.5,16.08,8.21-.24,15.89,1.05,23.67,3.52,36.63,11.6,73.34,22.93,110.03,34.33,3.67,1.14,7.4,2.08,12.05,3.37.57-5.17,1.16-8.72,1.32-12.29,1.08-24.47-6.43-35.1-28.45-41.4-19.32-5.53-38.15-12.81-57.14-19.46-9.75-3.41-11.13-5.88-9.77-16.37,1.64-12.7,3.52-25.37,4.98-38.1.8-6.96,3.87-11.22,10.82-13.44,17.41-5.56,34.63-11.74,51.98-17.51,10.47-3.48,11.77-3.03,18.49,5.9,14.76,19.61,29.61,39.16,43.98,59.05,3.54,4.91,6.11,10.82,7.87,16.65,5.09,16.8,8.97,33.98,14.4,50.66,4.78,14.67,16.74,19.04,31.84,12.74ZM108.32,261.87c2.37-10.33,2.31-153.56-.09-163.42-17.14,0-34.46,0-52.38,0,0,54.75.01,108.74.02,163.42,17.69,0,34.75,0,52.44,0Z"/>
  <path class="cls-1" d="M427.13,360.91c.14,8.04-7.15,15.51-15.12,15.48-7.94-.03-15.07-7.52-14.98-15.73.09-7.99,6.4-14.2,14.68-14.47,8.79-.28,15.27,5.9,15.43,14.71Z"/>
  <path class="cls-1" d="M430.73,468.66c-8.58-.28-14.82-7.08-14.56-15.85.27-8.97,6.57-14.7,15.71-14.25,8.01.39,14.54,7.08,14.49,14.85-.05,7.79-7.96,15.51-15.64,15.26Z"/>
  <path class="cls-1" d="M368.54,433.86c-8.26-.09-15.26-7.4-14.94-15.61.32-8.32,7.53-14.89,15.99-14.55,8.19.32,14.05,6.6,14.01,15.01-.05,8.92-6.34,15.25-15.05,15.15Z"/>
</svg>