<?xml version="1.0" encoding="UTF-8"?>
<svg id="Layer_1" data-name="Layer 1" xmlns="http://www.w3.org/2000/svg" viewBox="0 0 512 512">
  <defs>
    <style>
      .cls-1 {
        fill: #edf2f0;
        stroke-width: 0px;
      }
    </style>
  </defs>
  <path class="cls-1" d="M315.43,460.96c4.32,0,8.5,0,12.68,0,27.74,0,55.48-.01,83.22,0,3.08,0,6.21-.17,9.22.34,4.68.79,7.41,3.79,7.84,8.62.42,4.78-1.45,8.48-6.05,9.98-2.85.93-6.02,1.17-9.05,1.17-104.79.07-209.58.09-314.37.05-3.03,0-6.24-.17-9.05-1.14-4.5-1.55-6.51-5.19-6.05-10.01.47-4.78,2.99-7.93,7.8-8.63,3.03-.44,6.15-.32,9.23-.32,27.74-.03,55.48-.04,83.21-.05,4.18,0,8.37,0,13.38,0,1.44-7.88,2.85-14.95,4-22.06,2.39-14.81,4.42-29.67,7.04-44.44,1.04-5.86-.8-9.25-5.86-12.15-12.02-6.9-23.92-14.03-35.56-21.55-5.49-3.55-11.01-4.37-17.4-4.43-12.65-.11-25.45-.36-37.92-2.3-27.73-4.31-49.26-18.98-64.78-42.29-9.93-14.91-16.41-31.37-20.17-48.83-2.48-11.51.69-15.27,12.32-17.04,21.42-3.26,42.38-.93,62.62,6.03,27.5,9.46,45.52,29.46,57.32,55.39,3.33,7.32,6.12,14.98,8.17,22.75,1.81,6.87,5.39,11.25,11.62,14.65,11.06,6.02,21.66,12.89,33.74,20.18,2.78-17.28,4.12-33.06,8.08-48.16,4.05-15.48-.16-26.31-11.99-36.27-8.18-6.89-14.93-15.54-22.04-23.64-4.25-4.84-9.21-7.58-15.54-9.03-17.81-4.07-34.19-11.36-49.09-22.19-21.15-15.37-33.03-36.49-37.39-61.58-2.35-13.53-2.47-27.57-2.33-41.36.13-12.72,5.22-15.84,17.86-13.56,14.53,2.62,28.23,7.53,41.2,14.47,30.3,16.22,48.01,41.47,52.82,75.41,1.5,10.61,1.79,21.46,1.74,32.2-.02,4.8,1.61,7.94,4.62,11.17,12.1,12.94,23.81,26.26,36.2,38.91,5.7,5.82,7.57,11.78,6.27,19.73-5.27,32.27-10.2,64.6-15.17,96.92-3.15,20.46-6.15,40.94-9.35,62.31,25.39,0,49.75,0,75.16,0-2.48-16.77-4.73-32.69-7.2-48.58-5.66-36.5-11.35-72.99-17.21-109.46-1.38-8.58.06-15.42,6.75-21.85,10.82-10.39,20.3-22.17,31.04-32.65,6.56-6.4,9.12-13.14,9.16-22.34.05-11.83,1.42-23.83,3.71-35.46,5.34-27.1,20.47-47.69,43.9-62.27,15.57-9.69,32.5-15.76,50.44-19.13,9.55-1.79,14.27,1.01,15.16,10.79,4.5,49.06-8.69,96.74-63.34,120.08-8.45,3.61-17.37,6.27-26.26,8.64-5.47,1.45-9.77,3.84-13.56,8.04-10.58,11.72-21.43,23.2-32.26,34.69-2.69,2.86-5.31,5.57-4.6,9.98,3.32,20.81,6.6,41.62,10.18,64.26,14.34-8.76,27.51-16.54,40.33-24.87,2.14-1.39,3.11-5.04,4-7.84,4.44-13.97,9.37-27.63,17.34-40.13,17.81-27.96,43.37-43.16,76.02-46.14,12.17-1.11,24.55-.58,36.79.09,9.97.54,12.77,4.6,11.81,14.31-4.5,45.62-41.2,85.98-86.3,93.75-12.41,2.14-25.26,2.13-37.91,2.21-6.04.04-11.23.99-16.33,4.2-11.72,7.4-23.57,14.61-35.51,21.65-4.86,2.86-7.12,6.21-6.11,12.17,3.29,19.34,6.1,38.76,9.22,58.13.42,2.58,1.5,5.06,2.54,8.48ZM365.27,335.04c44.62,7.26,88.29-18.23,96.94-69.24-51.68-5.72-86.65,22.74-96.94,69.24ZM409.06,131.04c-47.41,8.05-81.44,53.83-71.72,95.69,49.42-8.22,76.84-48,71.72-95.69ZM49.83,265.97c9.08,51,52.36,76.45,97.07,69.04-10.54-47.71-47.28-74.99-97.07-69.04ZM174.73,226.8c5.74-46.74-22.94-88.19-71.78-94.85-4.85,48.92,23.62,86.55,71.78,94.85Z"/>
  <path class="cls-1" d="M210.69,117.08c.04-24.56,9.64-45.68,23.35-65.25,3.96-5.66,8.36-11.08,13.09-16.11,5.85-6.21,10.89-6.55,16.86-.55,5.66,5.7,10.84,12.03,15.38,18.66,13.25,19.39,22.15,40.3,21.94,64.45-.22,25.4-10.15,47.05-24.66,67.05-3.83,5.28-7.93,10.46-12.55,15.03-5.4,5.35-11.1,5.45-16.18-.03-21.76-23.52-36.8-50.17-37.23-83.26ZM255.93,57.33c-32.89,36.87-34.11,85.52.8,119.97,32.47-35.41,32.32-84.7-.8-119.97Z"/>
</svg>