<?xml version="1.0" encoding="UTF-8"?>
<svg id="Layer_1" data-name="Layer 1" xmlns="http://www.w3.org/2000/svg" viewBox="0 0 512 512">
  <defs>
    <style>
      .cls-1, .cls-2 {
        stroke-width: 0px;
      }

      .cls-1, .cls-3 {
        fill: #00e676;
      }

      .cls-2 {
        fill: #edf2f0;
      }

      .cls-3 {
        font-family: CascadiaMonoRoman-Light, 'Cascadia Mono';
        font-size: 299.82px;
        font-variation-settings: 'wght' 300;
        font-weight: 300;
      }
    </style>
  </defs>
  <rect class="cls-2" x="0" width="512" height="512"/>
  <g>
    <path class="cls-1" d="M279.54,449.13c20.01-6.53,37.17-16.8,53.6-28.26,31.58-22.02,58.37-48.6,76.68-82.88,14.26-26.69,22-55.39,25.53-85.37,3.19-27.05,2.83-54.04-.3-81.04-.39-3.36-1.21-6.68-1.93-10.55-2.3.56-3.65.7-4.85,1.21-46.96,20.01-88.61,47.42-121.02,87.53-16.13,19.96-27.92,42.15-33.96,67.24-.49,2.05-.8,4.19-1.62,6.11-1.83,4.31-6.06,6.45-10.21,5.44-4.23-1.02-7.55-4.83-7.07-9.25.49-4.51,1.64-8.98,2.89-13.36,10.09-35.47,30.12-64.9,56.04-90.49,33.54-33.1,72.97-57.08,116.92-73.78,1.64-.62,3.29-1.25,4.97-1.76,8.42-2.52,12.36-.31,14.51,8.46,1.17,4.77,2.07,9.63,2.72,14.5,6.99,52.67,4.78,104.58-13.55,155-14.66,40.33-39.69,73.36-72.4,100.76-30.48,25.53-64.48,45.04-101.75,58.91-5.54,2.06-10.6,2.24-16.37.68-43.79-11.85-83.48-31.54-117.76-61.44-31.09-27.12-51.24-61.21-62.89-100.6-10.62-35.9-12.88-72.56-10.53-109.67.69-10.95,5.01-14.21,16.05-11.22,44.04,11.9,84.24,31.28,118.84,61.53,38.74,33.87,60.2,77.18,69.37,127.07,2.41,13.09,3.2,26.48,4.76,39.73.2,1.66.57,3.29,1.04,5.97,4.94-2.89,6.18-7.47,8.28-11.14,28.14-49.13,56.15-98.34,84.2-147.53,1.39-2.44,2.66-5.01,4.42-7.17,2.93-3.6,7.59-4.44,11.4-2.47,3.72,1.92,5.5,6.27,4.03,10.89-.73,2.31-2.12,4.42-3.33,6.56-30.44,53.48-60.91,106.95-91.35,160.44-1.86,3.27-3.58,6.63-5.37,9.95ZM76.31,215.73c-6.07,35.56,4.86,107.07,33.59,149.77,25.38,37.72,87.51,82.52,121.45,86.4-2.37-3.54-4.38-6.72-6.55-9.78-25.56-36.18-51.16-72.33-76.72-108.51-1.62-2.29-3.33-4.57-4.51-7.09-2.09-4.46-.93-8.55,2.74-11.13,3.59-2.53,8.27-2.32,11.57.98,1.96,1.97,3.41,4.45,5.04,6.74,26.45,37.27,52.89,74.55,79.36,111.8,1.29,1.82,2.97,3.37,5.12,5.77,2.15-108.32-52.56-190.26-171.08-224.95Z"/>
    <text class="cls-3" transform="translate(152.94 238.74)"><tspan x="0" y="0">?</tspan></text>
  </g>
</svg>